<svg width="256" height="256" viewBox="0 0 256 256" fill="none" xmlns="http://www.w3.org/2000/svg">
<rect width="256" height="256" rx="128" fill="white"/>
<path d="M70.6297 124H63.8328V119.254H63.7156C61.743 122.887 58.6766 124.703 54.5164 124.703C47.4266 124.703 43.8816 120.445 43.8816 111.93V94H50.6785V111.227C50.6785 116.617 52.7586 119.312 56.9187 119.312C58.9305 119.312 60.5809 118.57 61.8699 117.086C63.1785 115.602 63.8328 113.658 63.8328 111.256V94H70.6297V124ZM110.125 124H103.329V107.096C103.329 101.49 101.346 98.6875 97.3812 98.6875C95.3109 98.6875 93.602 99.4688 92.2543 101.031C90.9066 102.574 90.2328 104.527 90.2328 106.891V124H83.4066V94H90.2328V98.9805H90.35C92.5961 95.1914 95.8383 93.2969 100.077 93.2969C103.338 93.2969 105.829 94.3613 107.547 96.4902C109.266 98.5996 110.125 101.656 110.125 105.66V124ZM149.621 124H142.824V118.902H142.707C140.52 122.77 137.15 124.703 132.6 124.703C128.908 124.703 125.949 123.365 123.723 120.689C121.516 117.994 120.412 114.332 120.412 109.703C120.412 104.742 121.633 100.768 124.074 97.7793C126.535 94.791 129.807 93.2969 133.889 93.2969C137.932 93.2969 140.871 94.918 142.707 98.1602H142.824V79.5859H149.621V124ZM142.912 110.289V106.363C142.912 104.234 142.219 102.428 140.832 100.943C139.445 99.459 137.678 98.7168 135.529 98.7168C132.99 98.7168 130.988 99.6641 129.523 101.559C128.078 103.453 127.355 106.08 127.355 109.439C127.355 112.486 128.049 114.898 129.436 116.676C130.842 118.434 132.727 119.312 135.09 119.312C137.414 119.312 139.299 118.463 140.744 116.764C142.189 115.045 142.912 112.887 142.912 110.289ZM187.798 110.846H167.349C167.427 113.619 168.277 115.758 169.898 117.262C171.539 118.766 173.785 119.518 176.636 119.518C179.839 119.518 182.779 118.561 185.455 116.646V122.125C182.72 123.844 179.107 124.703 174.615 124.703C170.201 124.703 166.734 123.346 164.214 120.631C161.714 117.896 160.464 114.059 160.464 109.117C160.464 104.449 161.841 100.65 164.595 97.7207C167.369 94.7715 170.806 93.2969 174.908 93.2969C179.009 93.2969 182.183 94.6152 184.429 97.252C186.675 99.8887 187.798 103.551 187.798 108.238V110.846ZM181.236 106.041C181.216 103.6 180.64 101.705 179.507 100.357C178.375 98.9902 176.812 98.3066 174.82 98.3066C172.867 98.3066 171.207 99.0195 169.839 100.445C168.492 101.871 167.662 103.736 167.349 106.041H181.236ZM215.575 100.475C214.755 99.8301 213.573 99.5078 212.03 99.5078C210.019 99.5078 208.339 100.416 206.991 102.232C205.644 104.049 204.97 106.52 204.97 109.645V124H198.173V94H204.97V100.182H205.087C205.751 98.0723 206.767 96.4316 208.134 95.2598C209.521 94.0684 211.064 93.4727 212.763 93.4727C213.993 93.4727 214.931 93.6582 215.575 94.0293V100.475ZM71.5543 177.664H71.4371V182H64.6402V137.586H71.4371V157.273H71.5543C73.8785 153.289 77.277 151.297 81.7496 151.297C85.5387 151.297 88.4977 152.645 90.6266 155.34C92.775 158.016 93.8492 161.609 93.8492 166.121C93.8492 171.141 92.648 175.164 90.2457 178.191C87.8434 181.199 84.5621 182.703 80.402 182.703C76.4957 182.703 73.5465 181.023 71.5543 177.664ZM71.3785 165.74V169.461C71.3785 171.648 72.0719 173.504 73.4586 175.027C74.8648 176.551 76.6422 177.312 78.7906 177.312C81.3102 177.312 83.2828 176.336 84.7086 174.383C86.1539 172.41 86.8766 169.666 86.8766 166.15C86.8766 163.201 86.2027 160.896 84.8551 159.236C83.527 157.557 81.7203 156.717 79.4352 156.717C77.0133 156.717 75.0602 157.576 73.5758 159.295C72.1109 161.014 71.3785 163.162 71.3785 165.74ZM111.519 182H104.693V137.586H111.519V182ZM137.596 182.703C132.968 182.703 129.266 181.307 126.493 178.514C123.739 175.701 122.362 171.98 122.362 167.352C122.362 162.312 123.798 158.377 126.669 155.545C129.559 152.713 133.446 151.297 138.329 151.297C143.016 151.297 146.669 152.674 149.286 155.428C151.903 158.182 153.212 162 153.212 166.883C153.212 171.668 151.796 175.506 148.964 178.396C146.151 181.268 142.362 182.703 137.596 182.703ZM137.919 156.717C135.262 156.717 133.163 157.645 131.62 159.5C130.077 161.355 129.305 163.914 129.305 167.176C129.305 170.32 130.087 172.801 131.649 174.617C133.212 176.414 135.302 177.312 137.919 177.312C140.595 177.312 142.645 176.424 144.071 174.646C145.516 172.869 146.239 170.34 146.239 167.059C146.239 163.758 145.516 161.209 144.071 159.412C142.645 157.615 140.595 156.717 137.919 156.717ZM191.36 179.598C191.36 190.613 185.823 196.121 174.748 196.121C170.842 196.121 167.434 195.467 164.524 194.158V187.947C167.805 189.822 170.92 190.76 173.87 190.76C180.998 190.76 184.563 187.254 184.563 180.242V176.961H184.446C182.2 180.789 178.821 182.703 174.309 182.703C170.657 182.703 167.707 181.375 165.461 178.719C163.235 176.043 162.121 172.459 162.121 167.967C162.121 162.869 163.323 158.816 165.725 155.809C168.127 152.801 171.428 151.297 175.627 151.297C179.592 151.297 182.532 152.918 184.446 156.16H184.563V152H191.36V179.598ZM184.621 168.26V164.363C184.621 162.254 183.918 160.457 182.512 158.973C181.125 157.469 179.387 156.717 177.297 156.717C174.719 156.717 172.698 157.674 171.233 159.588C169.788 161.482 169.065 164.139 169.065 167.557C169.065 170.506 169.758 172.869 171.145 174.646C172.551 176.404 174.407 177.283 176.711 177.283C179.055 177.283 180.959 176.443 182.424 174.764C183.889 173.064 184.621 170.896 184.621 168.26Z" fill="black"/>
</svg>
